# Blender v2.77 (sub 0) OBJ File: ''
# www.blender.org
mtllib leaf_cube.mtl
o Cube
v 1.000000 -1.000000 -1.000000
v 1.000000 -1.000000 1.000000
v -1.000000 -1.000000 1.000000
v -1.000000 -1.000000 -1.000000
v 1.000000 1.000000 -0.999999
v 0.999999 1.000000 1.000001
v -1.000000 1.000000 1.000000
v -1.000000 1.000000 -1.000000
vt -0.0062 0.9969
vt 0.3271 0.6635
vt 0.3271 0.9969
vt 0.9937 0.6635
vt 0.6604 0.3302
vt 0.9937 0.3302
vt 0.6604 0.3302
vt 0.9937 -0.0031
vt 0.9937 0.3302
vt 0.3271 -0.0031
vt 0.6604 0.3302
vt 0.3271 0.3302
vt -0.0062 0.6635
vt 0.3271 0.3302
vt 0.3271 -0.0031
vt -0.0062 0.3302
vt -0.0063 -0.0031
vt -0.0063 0.6635
vt 0.6604 0.6635
vt 0.6604 -0.0031
vt 0.6604 -0.0031
vt -0.0063 0.3302
vn 0.0000 -1.0000 0.0000
vn 0.0000 1.0000 0.0000
vn 1.0000 -0.0000 0.0000
vn -0.0000 -0.0000 1.0000
vn -1.0000 -0.0000 -0.0000
vn 0.0000 0.0000 -1.0000
usemtl Material.002
s off
f 1/1/1 3/2/1 4/3/1
f 8/4/2 6/5/2 5/6/2
f 5/7/3 2/8/3 1/9/3
f 6/10/4 3/11/4 2/12/4
f 7/13/5 4/14/5 3/2/5
f 1/15/6 8/16/6 5/17/6
f 1/1/1 2/18/1 3/2/1
f 8/4/2 7/19/2 6/5/2
f 5/7/3 6/20/3 2/8/3
f 6/10/4 7/21/4 3/11/4
f 7/13/5 8/22/5 4/14/5
f 1/15/6 4/14/6 8/16/6
